HIERARCHY
ROOT Hips
{
	OFFSET 0.000000 0.000000 0.000000
	CHANNELS 6 Xposition Yposition Zposition Zrotation Yrotation Xrotation 
	JOINT LowerBack
	{
		OFFSET 0.000000 0.000000 0.000000
		CHANNELS 3 Zrotation Yrotation Xrotation
		JOINT Spine
		{
			OFFSET 0.028270 2.035590 -0.193380
			CHANNELS 3 Zrotation Yrotation Xrotation
			JOINT Spine1
			{
				OFFSET 0.056720 2.048850 -0.042750
				CHANNELS 3 Zrotation Yrotation Xrotation
				JOINT Neck
				{
					OFFSET 0.000000 0.000000 0.000000
					CHANNELS 3 Zrotation Yrotation Xrotation
					JOINT Neck1
					{
						OFFSET -0.054170 1.746240 0.172020
						CHANNELS 3 Zrotation Yrotation Xrotation
						JOINT Head
						{
							OFFSET 0.104070 1.761360 -0.123970
							CHANNELS 3 Zrotation Yrotation Xrotation
							End Site
							{
								OFFSET 0.000000 0.000000 0.000000
							}
						}
					}
				}
				JOINT LeftShoulder
				{
					OFFSET 0.000000 0.000000 0.000000
					CHANNELS 3 Zrotation Yrotation Xrotation
					JOINT LeftArm
					{
						OFFSET 3.362410 1.200890 -0.311210
						CHANNELS 3 Zrotation Yrotation Xrotation
						JOINT LeftForeArm
						{
							OFFSET 4.983000 -0.000000 -0.000000
							CHANNELS 3 Zrotation Yrotation Xrotation
							JOINT LeftHand
							{
								OFFSET 3.483560 -0.000000 -0.000000
								CHANNELS 3 Zrotation Yrotation Xrotation
								JOINT LeftFingerBase
								{
									OFFSET 0.000000 0.000000 0.000000
									CHANNELS 3 Zrotation Yrotation Xrotation
									JOINT LeftHandIndex1
									{
										OFFSET 0.715260 -0.000000 -0.000000
										CHANNELS 3 Zrotation Yrotation Xrotation
										End Site
										{
											OFFSET 0.000000 0.000000 0.000000
										}
									}
								}
								JOINT LThumb
								{
									OFFSET 0.000000 0.000000 0.000000
									CHANNELS 3 Zrotation Yrotation Xrotation
									End Site
									{
										OFFSET 0.000000 0.000000 0.000000
									}
								}
							}
						}
					}
				}
				JOINT RightShoulder
				{
					OFFSET 0.000000 0.000000 0.000000
					CHANNELS 3 Zrotation Yrotation Xrotation
					JOINT RightArm
					{
						OFFSET -3.136600 1.374050 -0.404650
						CHANNELS 3 Zrotation Yrotation Xrotation
						JOINT RightForeArm
						{
							OFFSET -5.241900 -0.000000 -0.000000
							CHANNELS 3 Zrotation Yrotation Xrotation
							JOINT RightHand
							{
								OFFSET -3.444170 -0.000000 -0.000000
								CHANNELS 3 Zrotation Yrotation Xrotation
								JOINT RightFingerBase
								{
									OFFSET 0.000000 0.000000 0.000000
									CHANNELS 3 Zrotation Yrotation Xrotation
									JOINT RightHandIndex1
									{
										OFFSET -0.622530 -0.000000 -0.000000
										CHANNELS 3 Zrotation Yrotation Xrotation
										End Site
										{
											OFFSET 0.000000 0.000000 0.000000
										}
									}
								}
								JOINT RThumb
								{
									OFFSET 0.000000 0.000000 0.000000
									CHANNELS 3 Zrotation Yrotation Xrotation
									End Site
									{
										OFFSET 0.000000 0.000000 0.000000
									}
								}
							}
						}
					}
				}
			}
		}
	}
}
}
MOTION
Frames: 13
Frame Time: 0.008333
3.256790 17.361544 -0.976393 154.134131 -78.190578 -144.015074 -2.666146 -2.900768 -4.726815 -0.871153 -2.873355 -3.133086 -5.036230 -2.968241 2.945370 3.626869 -13.905866 -9.056406 -3.221362 -0.241042 -0.394585 0.000000 0.000000 0.000000 -0.808675 15.267173 1.282006 -61.494631 9.814081 -29.781790 -3.667447 -16.237838 0.017000 15.920125 -6.548996 -0.919115 -0.097395 -0.018935 -0.000000 0.000000 0.000000 0.000000 0.000000 0.000000 0.000000 9.720181 -10.854911 -1.133147 53.221880 1.401441 -19.730596 0.787738 59.547041 -0.032813 -11.931218 12.748674 -1.391496 0.157694 -0.345261 0.000000 0.000000 0.000000 0.000000 0.000000 0.000000 0.000000 
3.271532 17.360676 -1.005718 153.304461 -77.895330 -143.928668 -2.957121 -2.774093 -4.233789 -0.930916 -2.710613 -3.037091 -4.994479 -2.800973 2.926018 3.361016 -13.744677 -9.000108 -3.197308 -0.239037 -0.390267 0.000000 0.000000 0.000000 -1.133200 15.870063 1.251593 -61.392284 10.345438 -29.999169 -3.696379 -16.080727 0.018248 15.814229 -6.522401 -0.909008 -0.101658 -0.021990 -0.000000 0.000000 0.000000 0.000000 0.000000 0.000000 0.000000 9.386220 -10.582211 -1.184816 53.035180 1.087744 -19.728841 0.756712 59.751153 -0.035247 -12.292384 12.709968 -1.429998 0.160550 -0.349450 0.000000 0.000000 0.000000 0.000000 0.000000 0.000000 0.000000 
3.287765 17.359152 -1.034875 152.377998 -77.685579 -143.624387 -3.256999 -2.646087 -3.791492 -0.994574 -2.548010 -2.951072 -4.966458 -2.633551 2.910217 3.134089 -13.593843 -8.950673 -3.174437 -0.237106 -0.387075 0.000000 0.000000 0.000000 -1.446965 16.434462 1.219767 -61.245395 10.837565 -30.158445 -3.719916 -16.135884 0.019641 15.759745 -6.541616 -0.908296 -0.105626 -0.025344 -0.000000 0.000000 0.000000 0.000000 0.000000 0.000000 0.000000 9.088091 -10.322932 -1.229239 52.909734 0.834128 -19.795463 0.729680 59.921306 -0.037605 -12.635724 12.664308 -1.465298 0.163345 -0.353388 0.000000 0.000000 0.000000 0.000000 0.000000 0.000000 0.000000 
3.304790 17.357416 -1.064330 151.310921 -77.579227 -143.036044 -3.567989 -2.520663 -3.424302 -1.062719 -2.390063 -2.878032 -4.952947 -2.470845 2.904780 2.952731 -13.464699 -8.910429 -3.154177 -0.235380 -0.385373 0.000000 0.000000 0.000000 -1.730537 16.969069 1.185436 -61.060284 11.254221 -30.308195 -3.738423 -16.350177 0.021076 15.754517 -6.598392 -0.915582 -0.109249 -0.028648 -0.000000 0.000000 0.000000 0.000000 0.000000 0.000000 0.000000 8.843045 -10.091618 -1.269310 52.835291 0.637367 -19.921920 0.706556 60.069828 -0.039823 -12.952119 12.607824 -1.495995 0.166008 -0.356935 0.000000 0.000000 0.000000 0.000000 0.000000 0.000000 0.000000 
3.322240 17.355901 -1.094269 150.058349 -77.587818 -142.108799 -3.891517 -2.401463 -3.140659 -1.135984 -2.240563 -2.819339 -4.955151 -2.316887 2.910579 2.821864 -13.356879 -8.877865 -3.138423 -0.234053 -0.384606 0.000000 0.000000 0.000000 -1.970212 17.464264 1.149645 -60.846138 11.585985 -30.484253 -3.751872 -16.694896 0.022488 15.794191 -6.684917 -0.929766 -0.112477 -0.031695 -0.000000 0.000000 0.000000 0.000000 0.000000 0.000000 0.000000 8.663666 -9.890001 -1.305460 52.802946 0.483240 -20.107836 0.687166 60.214063 -0.041847 -13.232668 12.537716 -1.520590 0.168446 -0.359984 0.000000 0.000000 0.000000 0.000000 0.000000 0.000000 0.000000 
3.339965 17.354985 -1.124803 148.566713 -77.717411 -140.785057 -4.227431 -2.291831 -2.941866 -1.214471 -2.102816 -2.775431 -4.973284 -2.175148 2.926473 2.744536 -13.275051 -8.851731 -3.127963 -0.233219 -0.384307 0.000000 0.000000 0.000000 -2.159773 17.900881 1.113856 -60.612803 11.842894 -30.700081 -3.760302 -17.166092 0.023819 15.870148 -6.785678 -0.948247 -0.115322 -0.034373 -0.000000 0.000000 0.000000 0.000000 0.000000 0.000000 0.000000 8.556251 -9.724428 -1.336621 52.805096 0.367997 -20.347491 0.671533 60.365185 -0.043625 -13.472221 12.453436 -1.538383 0.170617 -0.362478 0.000000 0.000000 0.000000 0.000000 0.000000 0.000000 0.000000 
3.357738 17.354726 -1.155586 146.804199 -77.973877 -139.026292 -4.565685 -2.193154 -2.831153 -1.296120 -1.978812 -2.746846 -5.005657 -2.047795 2.953436 2.720665 -13.215539 -8.832159 -3.122248 -0.232833 -0.384415 0.000000 0.000000 0.000000 -2.289755 18.279858 1.080085 -60.376636 12.008691 -30.976809 -3.762689 -17.742223 0.024971 15.977156 -6.889582 -0.969229 -0.117808 -0.036394 -0.000000 0.000000 0.000000 0.000000 0.000000 0.000000 0.000000 8.517980 -9.592621 -1.362992 52.832406 0.276971 -20.638425 0.658990 60.537449 -0.045155 -13.669316 12.356753 -1.549371 0.172483 -0.364447 0.000000 0.000000 0.000000 0.000000 0.000000 0.000000 0.000000 
3.375600 17.355104 -1.186047 144.729230 -78.356199 -136.790151 -4.893130 -2.106155 -2.805682 -1.377888 -1.869816 -2.733363 -5.049183 -1.936187 2.990630 2.746280 -13.181599 -8.820317 -3.119402 -0.232724 -0.385150 0.000000 0.000000 0.000000 -2.362620 18.594728 1.050276 -60.152209 12.086925 -31.307192 -3.758121 -18.427330 0.025874 16.107144 -6.981093 -0.990210 -0.120000 -0.037624 -0.000000 0.000000 0.000000 0.000000 0.000000 0.000000 0.000000 8.537310 -9.498604 -1.383238 52.877835 0.209209 -20.972310 0.649183 60.734442 -0.046439 -13.825924 12.252372 -1.554459 0.174071 -0.365988 0.000000 0.000000 0.000000 0.000000 0.000000 0.000000 0.000000 
3.393744 17.355855 -1.215323 142.304552 -78.861076 -134.045191 -5.193580 -2.028566 -2.851040 -1.456575 -1.774041 -2.733004 -5.101159 -1.838443 3.036482 2.816496 -13.145200 -8.815101 -3.118401 -0.232775 -0.386413 0.000000 0.000000 0.000000 -2.366825 18.860549 1.028593 -59.963738 12.044108 -31.703161 -3.743811 -19.195946 0.026419 16.263403 -7.056154 -1.010791 -0.121894 -0.037709 0.000000 0.000000 0.000000 0.000000 0.000000 0.000000 0.000000 8.599713 -9.413665 -1.397284 52.936149 0.121754 -21.363833 0.640523 60.980026 -0.047528 -13.944303 12.143052 -1.554347 0.175314 -0.367242 0.000000 0.000000 0.000000 0.000000 0.000000 0.000000 0.000000 
3.412217 17.356784 -1.242489 139.475864 -79.473725 -130.742362 -5.447474 -1.958913 -2.958421 -1.527101 -1.690746 -2.744831 -5.155757 -1.753774 3.088568 2.918569 -13.123334 -8.820189 -3.114771 -0.232561 -0.389074 0.000000 0.000000 0.000000 -2.327560 19.066171 1.015677 -59.819264 11.910001 -32.115381 -3.719405 -20.084230 0.026598 16.432279 -7.097983 -1.027672 -0.123642 -0.036772 0.000000 0.000000 0.000000 0.000000 0.000000 0.000000 0.000000 8.676028 -9.354539 -1.401878 53.005402 0.042717 -21.794094 0.633095 61.256121 -0.048454 -14.032489 12.038059 -1.551136 0.176370 -0.368454 0.000000 0.000000 0.000000 0.000000 0.000000 0.000000 0.000000 
3.431533 17.357549 -1.266522 136.183330 -80.175346 -126.837454 -5.636316 -1.893143 -3.109426 -1.584968 -1.616389 -2.766241 -5.207908 -1.678408 3.144362 3.039634 -13.111077 -8.838496 -3.104949 -0.231704 -0.394056 0.000000 0.000000 0.000000 -2.258474 19.220897 1.013151 -59.730712 11.680515 -32.513952 -3.683504 -21.096626 0.026394 16.608961 -7.103627 -1.039953 -0.125352 -0.034757 0.000000 0.000000 0.000000 0.000000 0.000000 0.000000 0.000000 8.737513 -9.314391 -1.395148 53.086246 -0.028380 -22.261565 0.626032 61.559054 -0.049295 -14.097217 11.944129 -1.546724 0.177290 -0.369895 0.000000 0.000000 0.000000 0.000000 0.000000 0.000000 0.000000 
3.452435 17.357858 -1.286678 132.322279 -80.945953 -122.249301 -5.749458 -1.826277 -3.276660 -1.627958 -1.545984 -2.793742 -5.255447 -1.607040 3.198133 3.171148 -13.073095 -8.868012 -3.088413 -0.230109 -0.401229 0.000000 0.000000 0.000000 -2.157948 19.338700 1.024375 -59.713423 11.338616 -32.890093 -3.633967 -22.219884 0.025771 16.798229 -7.080255 -1.049036 -0.127042 -0.031534 0.000000 0.000000 0.000000 0.000000 0.000000 0.000000 0.000000 8.766044 -9.254262 -1.375616 53.178947 -0.137458 -22.787625 0.617789 61.908587 -0.050122 -14.142624 11.862289 -1.541617 0.178026 -0.371739 0.000000 0.000000 0.000000 0.000000 0.000000 0.000000 0.000000 
3.475302 17.357592 -1.302529 127.772818 -81.752041 -116.878030 -5.779353 -1.754771 -3.442674 -1.653068 -1.475968 -2.824333 -5.293210 -1.535887 3.248111 3.299290 -13.036997 -8.915986 -3.060262 -0.227252 -0.412595 0.000000 0.000000 0.000000 -2.058537 19.418046 1.047304 -59.759414 10.914153 -33.188671 -3.571926 -23.480360 0.024802 16.985058 -7.027192 -1.053515 -0.128943 -0.027324 0.000000 0.000000 0.000000 0.000000 0.000000 0.000000 0.000000 8.732954 -9.199566 -1.340079 53.290239 -0.233072 -23.351167 0.608766 62.271815 -0.050991 -14.175770 11.801059 -1.537813 0.178711 -0.374275 0.000000 0.000000 0.000000 0.000000 0.000000 0.000000 0.000000 
